<svg xmlns="http://www.w3.org/2000/svg" width="48" height="48" viewBox="0 0 48 48">
    <path fill="#C00" d="M24 4c11.046 0 20 8.954 20 20s-8.954 20-20 20S4 35.046 4 24 12.954 4 24 4zm0 2C14.058 6 6 14.058 6 24s8.058 18 18 18 18-8.058 18-18S33.942 6 24 6zm0 3.883c.513 0 .936.386.993.883l.007.117v3.195c1.031.133 2.064.394 3.076.751.9.317 1.592.636 1.999.859.485.264.663.872.399 1.356-.265.485-.872.664-1.357.4-.32-.175-.917-.45-1.705-.728-1.308-.461-2.643-.737-3.912-.737-2.69 0-4.618 1.196-4.618 2.724 0 1.618 1.364 2.563 5.299 3.992l.324.116.393.14c4.823 1.723 6.558 2.831 6.558 5.478 0 2.98-2.501 4.698-6.455 4.97v3.112c0 .552-.448 1-1 1-.513 0-.936-.386-.993-.884L23 36.511v-3.095c-1.69-.086-3.137-.429-4.348-.956-.88-.382-1.47-.781-1.79-1.08-.403-.377-.425-1.01-.048-1.413.377-.404 1.01-.425 1.413-.048.16.148.561.42 1.223.707 1.16.505 2.618.811 4.403.811 3.651 0 5.602-1.14 5.602-3.008 0-1.32-1.233-2.145-4.91-3.478l-.32-.116-.394-.14c-5.04-1.801-6.95-3.064-6.95-5.992 0-2.753 2.697-4.552 6.119-4.712L23 10.883c0-.552.448-1 1-1z">
    </path>
</svg>