<svg xmlns="http://www.w3.org/2000/svg" width="48" height="48" viewBox="0 0 48 48">
    <g fill="none" fill-rule="evenodd">
        <g fill="#C00" fill-rule="nonzero">
            <path d="M5.004 27.975l10 .004c.552 0 1 .448 1 1v.999h5.553c1.093 0 2.144.405 2.952 1.132l.17.16c.407.408.945.655 1.515.7l.191.008h6.586c1.497 0 2.737 1.095 2.963 2.527l3.322-1.557c1.571-.803 3.577-.396 4.374 1.256.767 1.59.303 3.256-1.213 4.341l-.18.123-8.53 4.412c-2.647.908-5.416 1.189-8.748.62l-.458-.084-8.497-1.9v1.262c0 .553-.448 1-1 1h-6.41c-2.54 0-4.59-2.026-4.59-4.563v-10.44c0-.553.448-1 1-1zm16.553 4.003h-5.553v7.69l8.903 1.99c3 .574 5.457.391 7.684-.303l.332-.108 8.306-4.303c.75-.49.95-1.146.6-1.871-.239-.495-.914-.66-1.564-.39l-.13.06-5.06 2.374c-.497.488-1.162.805-1.9.854l-.204.007h-6c-.552 0-1-.448-1-1 0-.513.386-.936.884-.993l.116-.007h6c.26 0 .496-.099.673-.26.037-.055.081-.105.131-.15.125-.164.196-.369.196-.59 0-.513-.385-.936-.883-.993l-.117-.007h-6.586c-1.17 0-2.293-.465-3.12-1.293-.408-.408-.946-.654-1.517-.7l-.19-.007zM6.004 29.975v9.44c0 1.427 1.149 2.563 2.59 2.563h5.41v-12l-8-.003zM24.998 4.002c.513 0 .936.386.994.883l.006.117v1.467c.652.113 1.3.303 1.937.552.638.25 1.13.5 1.426.68.472.285.623.9.338 1.373-.286.472-.901.623-1.374.338-.203-.124-.596-.325-1.118-.528-.86-.336-1.733-.535-2.554-.535-1.689 0-2.857.804-2.857 1.836 0 1.11.847 1.769 3.406 2.803l.28.112.272.107c3.41 1.35 4.68 2.248 4.68 4.381 0 2.318-1.733 3.709-4.436 3.998V23c0 .552-.447 1-1 1-.512 0-.935-.386-.993-.883L23.998 23l-.001-1.395c-1.087-.094-2.031-.356-2.834-.744-.642-.31-1.077-.636-1.32-.888-.383-.397-.372-1.03.026-1.414.397-.383 1.03-.372 1.414.026.085.089.332.274.75.475.748.361 1.696.583 2.866.583 2.353 0 3.535-.768 3.535-2.055 0-.883-.763-1.453-3.153-2.416l-.263-.105-.271-.107c-3.56-1.409-4.951-2.429-4.951-4.775 0-2.136 1.84-3.58 4.202-3.805V5.002c0-.552.448-1 1-1z" transform="translate(-1159 -692) translate(111 591) translate(1002 88) translate(13 13) translate(33)">
            </path>
        </g>
    </g>
</svg>