<svg xmlns="http://www.w3.org/2000/svg" xmlns:xlink="http://www.w3.org/1999/xlink" width="48" height="48" viewBox="0 0 48 48">
    <defs>
        <path id="prefix__a" d="M39 12c2.761 0 5 2.239 5 5v10c0 2.761-2.239 5-5 5H17c-2.761 0-5-2.239-5-5V17c0-2.761 2.239-5 5-5h22zm0 2H17c-1.657 0-3 1.343-3 3v10c0 1.657 1.343 3 3 3h22c1.657 0 3-1.343 3-3V17c0-1.657-1.343-3-3-3zm-11 1.46c.552 0 1 .448 1 1l.001 1.011c.164.038.32.085.466.139.298.109.516.23.658.336.442.331.532.958.201 1.4-.33.442-.957.532-1.4.201.01.007-.04-.02-.147-.06-.23-.084-.523-.137-.887-.137-.471 0-.832.298-.832.697 0 .078.161.26.55.48.23.129.95.446.954.448-.08-.042.632.273.94.45.91.526 1.496 1.253 1.496 2.282 0 1.321-.789 2.213-1.999 2.555v1.278c0 .552-.449 1-1 1-.553 0-1-.448-1-1L27 26.312l-.231-.061c-.164-.047-.33-.103-.496-.166-.307-.115-.561-.23-.724-.313-.493-.25-.69-.851-.441-1.344.25-.493.85-.69 1.344-.44.103.052.294.138.525.225.177.067.347.12.499.157.136.032.249.048.325.048.865 0 1.2-.247 1.2-.711 0-.17-.141-.344-.498-.55-.192-.111-.848-.4-.86-.407.085.045-.68-.293-1.016-.482-.954-.539-1.567-1.23-1.567-2.221 0-1.27.842-2.225 1.94-2.563V16.46c0-.552.448-1 1-1zM24 .005c2.761 0 5 2.238 5 5v1.438l1.783-1.836c.384-.396 1.017-.405 1.414-.02.396.384.405 1.017.02 1.413l-3.594 3.702c-.41.423-1.096.4-1.479-.048l-3.405-4c-.358-.42-.308-1.052.113-1.41.42-.358 1.051-.308 1.41.113L27 6.4V5.005c0-1.657-1.343-3-3-3H5c-1.657 0-3 1.343-3 3V18c0 1.657 1.343 3 3 3h4.002c.552 0 1 .448 1 1s-.448 1-1 1H5c-2.761 0-5-2.239-5-5V5.005c0-2.762 2.239-5 5-5h19z"/>
    </defs>
    <g fill="none" fill-rule="evenodd" transform="translate(2 8)">
        <use fill="#C00" xlink:href="#prefix__a"/>
    </g>
</svg>
