<?xml version="1.0" encoding="UTF-8"?>
<svg width="34px" height="34px" viewBox="0 0 34 34" version="1.1" xmlns="http://www.w3.org/2000/svg" xmlns:xlink="http://www.w3.org/1999/xlink">
    <title>Icons / Channels / ic_retirement_plan</title>
    <g id="Page-1" stroke="none" stroke-width="1" fill="none" fill-rule="evenodd">
        <g id="Artboard" transform="translate(-119.000000, -115.000000)" fill="#CC0000" fill-rule="nonzero">
            <g id="Icons-/-Channels-/-ic_retirement_plan" transform="translate(116.000000, 112.000000)">
                <path d="M27.8716667,25.8336667 C32.895653,25.8336667 36.6666667,28.4302404 36.6666667,31.987 L36.6666667,33.4303333 C36.6666667,35.2008296 35.3318056,36.667 33.6448473,36.667 L6.35333333,36.662 C4.66782913,36.662 3.33333333,35.1954594 3.33333333,33.4253333 L3.33333333,31.9836667 C3.33333333,28.5234307 7.39943176,25.8336667 12.1233333,25.8336667 C12.644314,25.8336667 13.2465984,25.8978654 13.9928576,26.0187577 C14.2386613,26.0585774 14.4923304,26.103149 14.8038741,26.1604431 C14.7327036,26.1473546 15.5903358,26.3069666 15.7953459,26.3431065 C16.5473708,26.4763127 17.3113194,26.654999 18.0950723,26.8786878 C18.1921614,26.9070149 18.2673171,26.9296134 18.433406,26.9800925 L18.5164789,27.0053623 L18.5164789,27.0053623 L18.6285512,27.039209 C18.6498427,27.0455989 18.6753142,27.0532312 18.7092762,27.0634075 C19.2832101,27.2339284 19.6404577,27.3053333 19.9966667,27.3053333 C20.3398808,27.3053333 20.8419075,27.1944865 21.769985,26.9301411 L21.9149702,26.8887212 C22.4314335,26.7408658 22.5682728,26.7023661 22.8026951,26.6411644 C24.6854191,26.1451432 26.4753059,25.8336667 27.8716667,25.8336667 Z M27.8716667,27.5003333 C26.6491228,27.5003333 24.9831006,27.7902549 23.2255133,28.2533055 C23.0072058,28.3103021 22.8754593,28.3473689 22.3736833,28.4910196 L22.2265446,28.5330544 C21.1377014,28.8431909 20.5543234,28.972 19.9966667,28.972 C19.4421056,28.972 18.9504006,28.8737204 18.234602,28.6610502 C18.0896204,28.6176072 18.0896204,28.6176072 17.9484574,28.5746466 C17.7860476,28.5252936 17.7175315,28.5046916 17.632974,28.4800056 C16.9072462,28.2728915 16.1986907,28.1071616 15.5053289,27.9843461 C15.2918197,27.9467083 14.4234132,27.7850911 14.5024228,27.7996213 C14.2015277,27.7442855 13.9586983,27.7016184 13.7263358,27.6639762 C13.0607099,27.5561463 12.537097,27.5003333 12.1233333,27.5003333 C8.21006513,27.5003333 5,29.6238229 5,31.9836667 L5,33.4253333 C5,34.3082389 5.62522962,34.9953333 6.35348601,34.9953333 L33.645,35.0003333 C34.37462,35.0003333 35,34.3134351 35,33.4303333 L35,31.987 C35,29.5116647 32.078936,27.5003333 27.8716667,27.5003333 Z M19.9918333,3.333 C24.4653995,3.333 28.3419625,6.89773268 27.6592004,11.0992068 L27.6592004,11.0992068 L26.8007085,18.23153 C26.2715487,21.7137427 23.5402481,24.0646667 19.9918333,24.0646667 C16.4465175,24.0646667 13.7240085,21.715216 13.191133,18.2058735 L13.191133,18.2058735 L12.3409901,11.1335392 C11.6514938,6.89728857 15.5196573,3.333 19.9918333,3.333 Z M19.9918333,4.99966667 C16.4630973,4.99966667 13.4788024,7.74952154 13.990867,10.9001265 L13.990867,10.9001265 L14.8423751,17.9811366 C15.2482074,20.6517748 17.2717076,22.398 19.9918333,22.398 C22.7159707,22.398 24.747486,20.6494052 25.1494663,18.0067932 L25.1494663,18.0067932 L26.0092679,10.8661356 C26.514929,7.75121025 23.52269,4.99966667 19.9918333,4.99966667 Z" id="Icon"></path>
            </g>
        </g>
    </g>
</svg>